<svg width="14" height="17" viewBox="0 0 14 17" fill="none" xmlns="http://www.w3.org/2000/svg">
    <path fill-rule="evenodd" clip-rule="evenodd" d="M1.35058 1.42206C1.71226 1.06038 2.2028 0.857193 2.71428 0.857193H8.42857C8.56118 0.857193 8.68836 0.909871 8.78212 1.00364L13.0678 5.28935C13.1616 5.38312 13.2143 5.5103 13.2143 5.64291V14.2143C13.2143 14.7258 13.0111 15.2164 12.6494 15.578C12.2877 15.9397 11.7972 16.1429 11.2857 16.1429H2.71428C2.2028 16.1429 1.71226 15.9397 1.35058 15.578C0.988901 15.2164 0.785713 14.7258 0.785713 14.2143V2.78576C0.785713 2.27428 0.988901 1.78374 1.35058 1.42206ZM2.71428 1.85719C2.46801 1.85719 2.23183 1.95502 2.05769 2.12917C1.88354 2.30331 1.78571 2.53949 1.78571 2.78576V14.2143C1.78571 14.4606 1.88354 14.6968 2.05769 14.8709C2.23183 15.0451 2.46801 15.1429 2.71428 15.1429H11.2857C11.532 15.1429 11.7682 15.0451 11.9423 14.8709C12.1165 14.6968 12.2143 14.4606 12.2143 14.2143V6.14291H8.42857C8.15243 6.14291 7.92857 5.91905 7.92857 5.64291V1.85719H2.71428ZM8.92857 2.5643L11.5072 5.14291H8.92857V2.5643ZM3.64286 6.35719C3.64286 6.08105 3.86671 5.85719 4.14286 5.85719H5.57143C5.84757 5.85719 6.07143 6.08105 6.07143 6.35719C6.07143 6.63334 5.84757 6.85719 5.57143 6.85719H4.14286C3.86671 6.85719 3.64286 6.63334 3.64286 6.35719ZM3.64286 9.21434C3.64286 8.93819 3.86671 8.71434 4.14286 8.71434H9.85714C10.1333 8.71434 10.3571 8.93819 10.3571 9.21434C10.3571 9.49048 10.1333 9.71434 9.85714 9.71434H4.14286C3.86671 9.71434 3.64286 9.49048 3.64286 9.21434ZM3.64286 12.0715C3.64286 11.7953 3.86671 11.5715 4.14286 11.5715H9.85714C10.1333 11.5715 10.3571 11.7953 10.3571 12.0715C10.3571 12.3476 10.1333 12.5715 9.85714 12.5715H4.14286C3.86671 12.5715 3.64286 12.3476 3.64286 12.0715Z" fill="white"/>
</svg>
