<svg xmlns="http://www.w3.org/2000/svg" viewBox="0 0 96 120" fill="currentColor" width="22" height="22">
    <g >
        <path d="M10.14,26.15h6.07L21,80.34A9.9,9.9,0,0,0,31,89.42h34.1A9.9,9.9,0,0,0,75,80.34l4.82-54.19h6.07a2.5,2.5,0,0,0,0-5h-21a17.05,17.05,0,0,0-33.74,0h-21a2.5,2.5,0,0,0,0,5ZM48,11.58a12.09,12.09,0,0,1,11.81,9.57H36.19A12.09,12.09,0,0,1,48,11.58ZM74.77,26.15,70,79.9a4.93,4.93,0,0,1-4.94,4.52H31A4.93,4.93,0,0,1,26,79.9L21.23,26.15ZM33.06,71.29V39a2.5,2.5,0,0,1,5,0V71.29a2.5,2.5,0,0,1-5,0Zm12.44,0V39a2.5,2.5,0,0,1,5,0V71.29a2.5,2.5,0,0,1-5,0Zm12.44,0V39a2.5,2.5,0,0,1,5,0V71.29a2.5,2.5,0,1,1-5,0Z"/>
    </g>
</svg>
