<svg width="16" height="17" viewBox="0 0 16 17" fill="none" xmlns="http://www.w3.org/2000/svg">
    <path d="M10.92 1.373C11.4801 0.82581 12.2333 0.521492 13.0163 0.526051C13.7993 0.530611 14.549 0.843681 15.1026 1.39736C15.6563 1.95104 15.9694 2.70067 15.974 3.48368C15.9785 4.26668 15.6742 5.01991 15.127 5.58L14.458 6.249L10.251 2.042L10.921 1.373H10.92ZM9.544 2.75L1.545 10.749C1.21768 11.0767 0.990486 11.4909 0.890003 11.943L0.0120025 15.893C-0.00636145 15.9752 -0.00366972 16.0607 0.0198281 16.1415C0.043326 16.2224 0.0868685 16.296 0.146416 16.3556C0.205963 16.4151 0.279587 16.4587 0.360455 16.4822C0.441323 16.5057 0.526816 16.5084 0.609002 16.49L4.535 15.617C5.00244 15.5129 5.43051 15.2777 5.769 14.939L13.751 6.957L9.544 2.75Z" fill="#0BC15A"/>
</svg>
