<svg xmlns="http://www.w3.org/2000/svg" viewBox="0 0 24 24" width="20" height="22">
<path
d="M3,6.75H13.37a2.73,2.73,0,0,0,5.26,0H21a.75.75,0,0,0,0-1.5H18.63a2.73,2.73,0,0,0-5.26,0H3a.75.75,0,0,0,0,1.5Zm13-2A1.25,1.25,0,1,1,14.75,6,1.25,1.25,0,0,1,16,4.75Z"
/>
<path
d="M21,11.25H10.63a2.73,2.73,0,0,0-5.26,0H3a.75.75,0,0,0,0,1.5H5.37a2.73,2.73,0,0,0,5.26,0H21a.75.75,0,0,0,0-1.5Zm-13,2A1.25,1.25,0,1,1,9.25,12,1.25,1.25,0,0,1,8,13.25Z"
/>
<path
d="M21,17.25H18.63a2.73,2.73,0,0,0-5.26,0H3a.75.75,0,0,0,0,1.5H13.37a2.73,2.73,0,0,0,5.26,0H21a.75.75,0,0,0,0-1.5Zm-5,2A1.25,1.25,0,1,1,17.25,18,1.25,1.25,0,0,1,16,19.25Z"
/>
</svg>
