<svg width="20" height="14" viewBox="0 0 20 14" fill="none" xmlns="http://www.w3.org/2000/svg">
    <path d="M0 0.999994C0 0.840864 0.0632142 0.688252 0.175736 0.57573C0.288258 0.463208 0.44087 0.399994 0.6 0.399994H18.6C18.7591 0.399994 18.9117 0.463208 19.0243 0.57573C19.1368 0.688252 19.2 0.840864 19.2 0.999994C19.2 1.15912 19.1368 1.31174 19.0243 1.42426C18.9117 1.53678 18.7591 1.59999 18.6 1.59999H0.6C0.44087 1.59999 0.288258 1.53678 0.175736 1.42426C0.0632142 1.31174 0 1.15912 0 0.999994ZM0 6.99999C0 6.84086 0.0632142 6.68825 0.175736 6.57573C0.288258 6.46321 0.44087 6.39999 0.6 6.39999H18.6C18.7591 6.39999 18.9117 6.46321 19.0243 6.57573C19.1368 6.68825 19.2 6.84086 19.2 6.99999C19.2 7.15912 19.1368 7.31174 19.0243 7.42426C18.9117 7.53678 18.7591 7.59999 18.6 7.59999H0.6C0.44087 7.59999 0.288258 7.53678 0.175736 7.42426C0.0632142 7.31174 0 7.15912 0 6.99999ZM0.6 12.4C0.44087 12.4 0.288258 12.4632 0.175736 12.5757C0.0632142 12.6883 0 12.8409 0 13C0 13.1591 0.0632142 13.3117 0.175736 13.4243C0.288258 13.5368 0.44087 13.6 0.6 13.6H18.6C18.7591 13.6 18.9117 13.5368 19.0243 13.4243C19.1368 13.3117 19.2 13.1591 19.2 13C19.2 12.8409 19.1368 12.6883 19.0243 12.5757C18.9117 12.4632 18.7591 12.4 18.6 12.4H0.6Z" fill="#14171C"/>
</svg>
