<svg xmlns="http://www.w3.org/2000/svg"
        version="1.1"
        viewBox="0 0 100 125">
    <path fill="currentColor"
            d="M80.2,75.9L69,64.8c8.5-10.6,7.7-26.2-2-35.9C61.9,23.8,55.2,21,48,21c-7.2,0-14,2.8-19.1,7.9C23.8,34,21,40.7,21,48  s2.8,14,7.9,19.1C34,72.1,40.7,75,48,75c6.1,0,12.1-2.1,16.8-5.9l11.1,11.1c0.6,0.6,1.3,0.9,2.1,0.9s1.6-0.3,2.1-0.9  C81.3,79,81.3,77.1,80.2,75.9z M69,48c0,5.6-2.2,10.9-6.2,14.8S53.6,69,48,69c-5.6,0-10.9-2.2-14.8-6.2S27,53.6,27,48  c0-5.6,2.2-10.9,6.2-14.8S42.3,27,48,27c5.6,0,10.9,2.2,14.8,6.2S69,42.3,69,48z"
    />
</svg>
