<svg width="20" height="20" viewBox="0 0 20 20" fill="none" xmlns="http://www.w3.org/2000/svg">
    <path d="M10 0.399994C12.5461 0.399994 14.9879 1.41142 16.7882 3.21177C18.5886 5.01212 19.6 7.45392 19.6 9.99999C19.6 12.5461 18.5886 14.9879 16.7882 16.7882C14.9879 18.5886 12.5461 19.6 10 19.6C7.45395 19.6 5.01215 18.5886 3.2118 16.7882C1.41145 14.9879 0.400024 12.5461 0.400024 9.99999C0.400024 7.45392 1.41145 5.01212 3.2118 3.21177C5.01215 1.41142 7.45395 0.399994 10 0.399994ZM14.0296 7.17519C13.9303 7.07629 13.7994 7.01529 13.6598 7.0028C13.5202 6.9903 13.3806 7.0271 13.2652 7.10679L13.1812 7.17519L8.80002 11.5576L6.82482 9.58119L6.74082 9.51159C6.62525 9.43197 6.48541 9.39539 6.34565 9.4082C6.20589 9.42102 6.07504 9.48242 5.97587 9.58173C5.87669 9.68105 5.81548 9.81199 5.80286 9.95177C5.79025 10.0915 5.82704 10.2313 5.90683 10.3468L5.97522 10.4308L8.37522 12.8308L8.45922 12.8992C8.55942 12.9683 8.67828 13.0054 8.80002 13.0054C8.92177 13.0054 9.04063 12.9683 9.14083 12.8992L9.22482 12.8296L14.0296 8.02479L14.0992 7.94079C14.1791 7.82522 14.2159 7.68529 14.2031 7.54538C14.1904 7.40548 14.129 7.27447 14.0296 7.17519Z" fill="#0BC15A"/>
</svg>
