<svg xmlns="http://www.w3.org/2000/svg" enable-background="new 0 0 2000 2000" viewBox="0 0 2000 2000" >
    <path fill="#e9eef7" fill-rule="evenodd" d="M987.1,320.7c182.5,0,161.6,322.2,293.4,420.5c174.4,130,474.3,65.6,474.3,288.8
			c0,391.7-389.1,533.6-813,533.6S156,1346.3,282.2,955.6C408.4,564.9,563.1,320.7,987.1,320.7z"
          clip-rule="evenodd" class="colore9eef7 svgShape"></path>
    <path fill="#d1dced" fill-rule="evenodd" d="M1005.7,1679.3c381.9,0,693.4-10.8,693.4-24c0-13.2-311.5-24-693.4-24c-381.9,0-693.4,10.8-693.4,24
			C312.4,1668.6,623.8,1679.3,1005.7,1679.3z" clip-rule="evenodd" class="colord1deed svgShape"></path>
    <polygon fill="#ea4335" fill-rule="evenodd" points="451.6 1404.6 465.2 1404.6 395.8 1652.3 382.2 1652.3"
             clip-rule="evenodd" class="colorf47a44 svgShape"></polygon>
    <polygon fill="#ea4335" fill-rule="evenodd" points="554.7 1404.6 568.4 1404.6 499 1652.3 485.3 1652.3"
             clip-rule="evenodd" class="colorf47a44 svgShape"></polygon>
    <polygon fill="#ea4335" fill-rule="evenodd" points="459.2 1426.1 548.7 1426.1 546.1 1435.2 456.7 1435.2"
             clip-rule="evenodd" class="colorf47a44 svgShape"></polygon>
    <polygon fill="#ea4335" fill-rule="evenodd" points="443.3 1482.8 532.8 1482.8 530.3 1491.9 440.8 1491.9"
             clip-rule="evenodd" class="colorf47a44 svgShape"></polygon>
    <polygon fill="#ea4335" fill-rule="evenodd" points="427.5 1539.5 516.9 1539.5 514.4 1548.6 424.9 1548.6"
             clip-rule="evenodd" class="colorf47a44 svgShape"></polygon>
    <polygon fill="#ea4335" fill-rule="evenodd" points="411.6 1596.2 501 1596.2 498.5 1605.4 409 1605.4"
             clip-rule="evenodd" class="colorf47a44 svgShape"></polygon>
    <polygon fill="#ea4335" fill-rule="evenodd" points="824.6 1404.6 810.9 1404.6 880.3 1652.3 894 1652.3"
             clip-rule="evenodd" class="colorf47a44 svgShape"></polygon>
    <polygon fill="#ea4335" fill-rule="evenodd" points="721.4 1404.6 707.7 1404.6 777.1 1652.3 790.8 1652.3"
             clip-rule="evenodd" class="colorf47a44 svgShape"></polygon>
    <polygon fill="#ea4335" fill-rule="evenodd" points="832.8 1482.8 743.3 1482.8 745.9 1491.9 835.4 1491.9"
             clip-rule="evenodd" class="colorf47a44 svgShape"></polygon>
    <polygon fill="#ea4335" fill-rule="evenodd" points="848.7 1539.5 759.2 1539.5 761.8 1548.6 851.3 1548.6"
             clip-rule="evenodd" class="colorf47a44 svgShape"></polygon>
    <polygon fill="#ea4335" fill-rule="evenodd" points="864.6 1596.2 775.1 1596.2 777.7 1605.4 867.1 1605.4"
             clip-rule="evenodd" class="colorf47a44 svgShape"></polygon>
    <rect width="400.4" height="21.5" x="430.3" y="1383.1" fill="#ea4335" fill-rule="evenodd"
          clip-rule="evenodd" class="colorf47a44 svgShape"></rect>
    <path fill="#ea4335" fill-rule="evenodd" d="M1091.9,566.3L1091.9,566.3c17.2,9.6,33.6,21,49,34.5c116.3,101.9,128,278.8,26.1,395.1
		c-101.9,116.3-278.8,128-395.1,26.1c-45.7-40.1-75.3-91.7-88.1-146.8c41.1,47.4,17.1-33.9,79.5,0c4.9,15,11.7,29.5,20.1,43.2
		l37.9-43.2h0v0l218.6-249.5c-79.4-35.7-176-17.4-236.4,51.5c-23.6,26.9-38.8,58.3-45.8,90.9c-12.3,57.1-10-11.2-35.9,24.3
		c-8.8,12.1-6.2,10.1-14-2.1c-7.6-11.9-8-7.4-30.7,3.2c3.7-59.6,26.5-118.4,68.8-166.8C834.2,526,979.1,503.9,1091.9,566.3
		L1091.9,566.3L1091.9,566.3z M1107.6,675.4L841.3,979.2c83.8,57.6,199.4,44.7,268.1-33.7C1178,867.1,1175.7,750.9,1107.6,675.4z"
          clip-rule="evenodd" class="colorf47a44 svgShape"></path>
    <path fill="#fbbc05" fill-rule="evenodd" d="M721.6,1032.2c0,0,4.9-6,7.6-6.8c2.7-0.8,7.8-4.8,8.5-3.2c0.7,1.6-3.5,4.2-3.2,6c0.2,1.9,4.7-0.8,4.6,1.2
			c-0.1,2,3.1,12.1-1.8,11.6c-4.9-0.5-15.1-3.2-17.6-1.9C717,1040.4,721.6,1032.2,721.6,1032.2z"
          clip-rule="evenodd" class="colorffb17d svgShape"></path>
    <path fill="#6190df" fill-rule="evenodd" d="M588.7,1003.1c7.3,9.8,15.8,17.5,24.6,23.6c27.8,19.4,58,22.2,58,22.2c7.2-2.3,29.5-4.7,42.6-6.9h0
			c5.7-0.9,9.7-1.8,10-2.6l-0.3-11.4c0,0-48.2-2.5-56.2-6.3c-12.6-10.8-23.7-24.9-31-35.9c-6.1-9.3-13-16.2-24.3-20.2
			C595.8,959.9,566.1,972.7,588.7,1003.1z" clip-rule="evenodd" class="color619fdf svgShape"></path>
    <path fill="#4285f4" fill-rule="evenodd" d="M610.8,1019.5l2.5,7.2c27.8,19.4,58,22.2,58,22.2c5.8,0,29.5-4.7,42.6-6.9c-0.5,0-35.8,2.8-43.5,2
			c-7.8-0.8-44.4-32.5-44.4-32.5L610.8,1019.5z" clip-rule="evenodd" class="color4f8dcb svgShape"></path>
    <path fill="#34a853" fill-rule="evenodd"
          d="M642.2 1382H589c-3.8-2.6 1-27.9 1-27.9s14.5-5.5 17 5.7c2.5 11.2 18.5 14.8 27 16.1C639.8 1376.9 641.7 1380.1 642.2 1382zM563.2 1382H510c-3.8-2.6 1-27.9 1-27.9s14.5-5.5 17.1 5.7c2.5 11.2 18.5 14.8 27 16.1C560.8 1376.9 562.7 1380.1 563.2 1382z"
          clip-rule="evenodd" class="color284190 svgShape"></path>
    <path fill="#4575c5" fill-rule="evenodd" d="M627.9,1123.8c0,0-2.4,29.9-5.2,65.8c-3.8,48.8-14.1,169.7-14.1,169.7s-6.8,5.8-21.7,2.6
			c0,0-12.8-41.7-16.6-89.4c-0.1-0.8-0.1-1.6-0.2-2.4c-3.5-48.5-9.1-150.6-9.1-150.6L627.9,1123.8z"
          clip-rule="evenodd" class="color4567c5 svgShape"></path>
    <path fill="#3b68b2" fill-rule="evenodd" d="M628.7,1113.5c0,0-3.2,40.2-6,76.1l-52.5,83c-0.1-0.8-0.1-1.6-0.2-2.4c-3.5-48.5-9.1-150.6-9.1-150.6
			L628.7,1113.5z" clip-rule="evenodd" class="color3b5bb2 svgShape"></path>
    <path fill="#4575c5" fill-rule="evenodd" d="M613.4,1113.5c0,0-38,94.7-50.2,130.6c-8.7,25.6-33.1,115.3-33.1,115.3s-10.6,3.2-19.6-3
			c0,0-9.1-91.6,9.3-117.5c9.7-13.7,2.4-142.5,41.9-143.6C601.3,1094.2,613.4,1113.5,613.4,1113.5z"
          clip-rule="evenodd" class="color4567c5 svgShape"></path>
    <path fill="#fbbc05" fill-rule="evenodd" d="M596.4,973.9c-5.8,3.1-11.5,3.2-16.4,2.2c-4.5-0.9-8.4-2.9-11.1-4.7c-2.8-1.8-4.5-3.4-4.5-3.4
			s0.2-0.3,0.5-0.8c1.7-2.9,6.9-13.5,4.6-30.4c0-0.2,1.6,0.1,4.2,0.7c7.5,1.8,22.7,6.1,23.4,6.3h0c0,0,0.2,3.6,0.8,10
			c0.1,0.6,0.1,1.2,0.2,1.8c0.1,0.7,0.2,1.5,0.2,2.4C599.1,964.5,596.4,973.9,596.4,973.9z" clip-rule="evenodd"
          class="colorffb17d svgShape"></path>
    <path fill="#ef6c61" fill-rule="evenodd" d="M598,953.7c-11.3,2.6-28.1-14.1-28.1-14.1c1.2-0.9,2.5-1.6,3.9-2.2c7.5,1.8,22.7,6.1,23.4,6.3h0
			C597.2,943.8,597.4,947.3,598,953.7z" clip-rule="evenodd" class="coloref8161 svgShape"></path>
    <path fill="#fbbc05" fill-rule="evenodd" d="M601.5,944.9c0,0-4.8,1.7-10.9,2.5c-8.9,1.2-20.7,0.5-24.4-10.3c-6.2-18.2-14.2-29.1,4.1-36.5
			c9.8-4,16.1-4.2,20.3-2.7c3.7,1.3,5.9,3.9,7.5,6.5C601.7,910.1,608.9,941.8,601.5,944.9z" clip-rule="evenodd"
          class="colorffb17d svgShape"></path>
    <path fill="#34a853" fill-rule="evenodd" d="M582.8,908.1c-4.5,2-5.4,9.7-5.4,12.1c-0.1,2.4-0.4,4.5-6.6,3c-1-0.2-1.7-0.2-2.2,0.1
			c-2.6,1.5,0.7,8.9,1.7,10.5c0,0,1.4,5.3-1.7,7.8c-0.4,0.3-6.6,3-21.5-19.8c-2.3-3.6-4.6-12.1-1-19.9
			c-5.8-20.7,55.3-28.4,63.1-14.3C623.3,913.2,576.7,906.3,582.8,908.1z" clip-rule="evenodd"
          class="color284190 svgShape"></path>
    <path fill="#6190df" fill-rule="evenodd" d="M633.9,1097.6c-0.8,10.9-3.1,18.6-8.1,18.6c0,0-22.4,7.9-49.1,8.1c-5.2,0-12.6-1-18.7-2
			c-6.3-1.1-11.2-2.1-11.2-2.1c-5.4-1.2-11.3-4.6-10.5-10.7c0.4-3.5,0.8-8,1-13.2c0.6-14.2,0.5-33.7,0.6-52.4
			c0.1-11.5,0.2-22.7,0.5-32.1c0,0-5.3-37,0.6-43.1c6.9-7.1,27-9.3,28.3-9c0.4-0.1,0.8-0.2,1.1-0.2c0,0,17.2,9.7,29.9,2.5
			c0,0,0.1,0,0.4,0.1c3.1,0.5,18.6,4.1,23.9,9.7c1.8,1.9,9.2,13.9,9.4,27c0.3,18.3-0.4,39.1-0.4,39.1c0.2,3,0.5,6.8,0.9,11.2
			c0.4,4.7,0.8,9.9,1.1,15.4c0.2,2.8,0.3,5.6,0.5,8.4C634.3,1081.5,634.4,1090.2,633.9,1097.6z"
          clip-rule="evenodd" class="color619fdf svgShape"></path>
    <path fill="#4285f4" fill-rule="evenodd"
          d="M567.2 959.6c0 0 19 19.6 32.6 15.6 0 0 1.8-2.6-4.3-3.5C589.3 970.8 582.7 971.2 567.2 959.6zM555.2 1028.4c0 0 0 52.9-18 67.8.6-14.2.5-33.7.6-52.4L555.2 1028.4z"
          clip-rule="evenodd" class="color4f8dcb svgShape"></path>
    <path fill="#fbbc05" fill-rule="evenodd" d="M499.7,1127.5c0,0-9.2,14.4-9.7,20c-0.3,3.8,0.5,18.6,2.4,18.6c2.6,0.1,5.3-9.1,6.3-11.5
			c1-2.4,2.2-4.3,3.2-4.3c1,0-2.2,9.2,0,8.2c2.2-1,6-9.6,6.3-11.6c0.3-2.1-2-8.6-0.9-11.2C508.5,1133.1,499.7,1127.5,499.7,1127.5z"
          clip-rule="evenodd" class="colorffb17d svgShape"></path>
    <path fill="#6190df" fill-rule="evenodd" d="M540.6,966.6c0,0-12.4,5.9-22.8,49.3c-7.8,32.7-22.9,116.3-22.9,116.3l12.7,5.2c0,0,46.5-106.8,53.2-121.9
			C567.5,1000.6,540.6,966.6,540.6,966.6z" clip-rule="evenodd" class="color619fdf svgShape"></path>
    <path fill="#34a853" fill-rule="evenodd"
          d="M595.9 897c5.6 1.8 8 4.7 7.1 8.7-6.8 5.3-13.9 7.1-21.5 5.7C585.6 910.1 590.4 905.3 595.9 897zM548.3 906.3c1.3-2.6 1-4.5-.7-5.5-4.2.6-7.3 2.6-9.3 5.8C540.1 905.5 543.4 905.5 548.3 906.3z"
          clip-rule="evenodd" class="color284190 svgShape"></path>
    <path fill="#34a853" fill-rule="evenodd"
          d="M554.6,905.5c-0.7,3.9-2.4,5.7-5.2,5.5c-4.1-4-5.9-8.6-5.6-13.8C545,899.8,548.6,902.6,554.6,905.5z"
          clip-rule="evenodd" class="color284190 svgShape"></path>
    <path fill="#1248a2" fill-rule="evenodd" d="M594,917.4c1.6-1.1,3-2.3,4.7-3.4c2.5-1.6,3.7,0,5.7-0.3c-0.5-0.1-0.5-0.3-1-0.6c-3.2-1.7-5.3-0.6-7.9,1.5
				C594,915.7,593.6,915.4,594,917.4z" clip-rule="evenodd" class="color125aa2 svgShape"></path>
    <path fill="#ffffff" fill-rule="evenodd" d="M598.8,915.6c1-0.2,1.9,0.3,2.2,1.3c0.2,1-0.3,1.9-1.3,2.2c-1,0.2-1.9-0.3-2.2-1.3
					C597.2,916.8,597.8,915.8,598.8,915.6z" clip-rule="evenodd" class="colorfff svgShape"></path>
    <path fill="#1248a2" fill-rule="evenodd"
          d="M599.6 919.1c1-.2 1.5-1.2 1.3-2.2-.2-1-1.2-1.5-2.2-1.3-.4.1-.7.3-1 .6l.1 0c.3-.1.6.1.7.4.1.3-.1.6-.4.7-.3.1-.6-.1-.7-.4l0-.1c-.1.3-.1.6 0 .9C597.7 918.7 598.7 919.3 599.6 919.1zM586.5 919.3c-2-.2-3.7-.6-5.8-.8-3-.3-3.3 1.8-5.2 2.4.4-.3.3-.5.6-1 2-3 4.4-3 7.7-2.4C585.7 917.8 585.9 917.3 586.5 919.3z"
          clip-rule="evenodd" class="color125aa2 svgShape"></path>
    <path fill="#ffffff" fill-rule="evenodd" d="M581.4,919.9c-1,0.2-1.5,1.2-1.3,2.2c0.2,1,1.2,1.5,2.2,1.3c1-0.2,1.5-1.2,1.3-2.2
					C583.3,920.2,582.4,919.7,581.4,919.9z" clip-rule="evenodd" class="colorfff svgShape"></path>
    <path fill="#1248a2" fill-rule="evenodd" d="M582.3,923.4c-1,0.2-1.9-0.3-2.2-1.3c-0.2-1,0.3-1.9,1.3-2.2c0.4-0.1,0.8-0.1,1.2,0.1l-0.1,0
					c-0.3,0.1-0.5,0.4-0.4,0.7c0.1,0.3,0.4,0.5,0.7,0.4c0.3-0.1,0.5-0.4,0.4-0.7l0-0.1c0.2,0.2,0.4,0.5,0.5,0.8
					C583.8,922.2,583.2,923.1,582.3,923.4z" clip-rule="evenodd" class="color125aa2 svgShape"></path>
    <path fill="none" stroke="#fb7e74" stroke-linecap="round" stroke-miterlimit="2.613" stroke-width=".082"
          d="M592.3,921.4c2.6,3.8,3.7,6.1,3.5,6.7c-0.5,0.7-1.1,1.1-1.8,1.2" clip-rule="evenodd"
          class="colorStrokefb9674 svgStroke"></path>
    <path fill="#ffffff" fill-rule="evenodd"
          d="M600.4,934.1c-2.9,3.8-6.3,4.4-10.3,1.6C594.6,935.4,598,934.7,600.4,934.1z" clip-rule="evenodd"
          class="colorfff svgShape"></path>
    <line x1="730.7" x2="730.7" y1="872.9" y2="1091.6" fill="none" stroke="#1e61d0" stroke-linecap="round"
          stroke-miterlimit="2.613" stroke-width="1.417" clip-rule="evenodd"
          class="colorStroke1e77d0 svgStroke"></line>
    <polyline fill="none" stroke="#1e77d0" stroke-linejoin="round" stroke-miterlimit="2.613" stroke-width=".567"
              points="731 867.2 731 836.8 808 836.8 808 822.2 801.8 822.2" clip-rule="evenodd"></polyline>
    <rect width="130.8" height="22.5" x="667.9" y="808.8" fill="#fb7e74" fill-rule="evenodd" clip-rule="evenodd"
          class="colorfb9674 svgShape"></rect>
    <path fill="#fb7e74" fill-rule="evenodd" d="M798.6,831.2c2.2,0,4-5,4-11.2c0-6.2-1.8-11.2-4-11.2c-2.2,0-4,5-4,11.2
					C794.6,826.2,796.4,831.2,798.6,831.2z" clip-rule="evenodd" class="colorfb9674 svgShape"></path>
    <path fill="#ea4335" fill-rule="evenodd" d="M668.3,831.2c2.2,0,4-5,4-11.2c0-6.2-1.8-11.2-4-11.2c-2.2,0-4,5-4,11.2
					C664.2,826.2,666,831.2,668.3,831.2z" clip-rule="evenodd" class="colorf47a44 svgShape"></path>
    <path fill="#fbbc05" fill-rule="evenodd" d="M738.8,1027.3c-0.4-0.4-0.8-0.9-1.3-0.7c-3.3,1.8-6.8,3.7-6.7,5.2c0.1,2.9,3.1,9.3,8,8.5l0.2-1.1
			C739.2,1036,740.6,1029,738.8,1027.3z" clip-rule="evenodd" class="colorffb17d svgShape"></path>
    <path fill="#ea4335" fill-rule="evenodd"
          d="M739.8 787.6c3.5 0 6.3 3.2 6.3 7 0 3.9-2.8 9-6.3 9s-6.3-5.1-6.3-9C733.5 790.8 736.3 787.6 739.8 787.6zM710.4 859.5c0 10.7-2.8 19.4-6.3 19.4-3.5 0-6.3-8.7-6.3-19.4 0-20.5-6.9-10-6.9-17.8 0-3.9 6.1-7.1 13.5-7.1 7.5 0 13.5 3.2 13.5 7.1 0 2.4-2.3 4.5-5.7 5.8C707.3 849.4 710.4 852.6 710.4 859.5z"
          clip-rule="evenodd" class="colorf47a44 svgShape"></path>
    <path fill="#ea4335" fill-rule="evenodd"
          d="M699.3 854.6c0 8.6-2.3 15.6-5 15.6-2.8 0-5-7-5-15.6 0-16.4-5.6-8-5.6-14.3 0-3.1 4.9-5.7 10.9-5.7 6 0 10.9 2.6 10.9 5.7 0 1.9-1.8 3.6-4.6 4.7C696.8 846.5 699.3 849.1 699.3 854.6zM1088.6 1633.6c-1.6-.7-3.3-1-5-.8-.8.1-1.7.3-2.4.7-1.3.6-2 1.5-3.6 1-1.9-.6-2.9-3.2-4.6-4.3-1.5-1-3.2-1.6-4.9-1.8-22.3-2.8-45.9-30.5-64.2-9-1.2 1.4-2.3 2.8-3.4 4.3-1.9 2.4-3.3 4.1-6.6 3.5-4.4-.9-13.2 2.7-20.4 7.1-26.4 15.9 33.3 16.6 51.9 19.9C1028.9 1654.1 1136.7 1655 1088.6 1633.6zM1028.3 1544.6c-1.8 0-3.3 14-3.3 24.7 0 12.8-20.3 19.6 3.6 19.6C1054.1 1588.8 1030.1 1544.6 1028.3 1544.6zM1003.8 1503.3c-1.3 0-16.6 33 .2 33C1023 1536.3 1005.1 1503.3 1003.8 1503.3zM963.8 1099c-1.3 0-16.6 33 .2 33C983 1132 965.1 1099 963.8 1099zM1002 1113.8c0 12.8-3.4 23.2-7.5 23.2-4.2 0-7.5-10.4-7.5-23.2 0-24.5-8.3-11.9-8.3-21.3 0-4.7 7.3-8.5 16.2-8.5 9 0 16.2 3.8 16.2 8.5 0 2.9-2.7 5.4-6.9 6.9C998.2 1101.6 1002 1105.5 1002 1113.8z"
          clip-rule="evenodd" class="colorf47a44 svgShape"></path>
    <path fill="#ea4335" fill-rule="evenodd"
          d="M1025.8 1104.5c0 12.8-3.4 23.2-7.5 23.2-4.2 0-7.5-10.4-7.5-23.2 0-24.5-8.3-11.9-8.3-21.3 0-4.7 7.3-8.5 16.2-8.5 9 0 16.2 3.8 16.2 8.5 0 2.9-2.7 5.4-6.9 6.9C1022 1092.4 1025.8 1096.3 1025.8 1104.5zM1036.6 1364.2c-1.3 0-16.6 33 .2 33C1055.8 1397.2 1037.9 1364.2 1036.6 1364.2zM1101.3 1644.3c0 1.8 14 3.3 24.7 3.3 12.8 0 19.6 20.3 19.6-3.6C1145.6 1618.5 1101.3 1642.5 1101.3 1644.3zM985.8 1204c-1.3 0-16.6 33 .2 33C1005 1237 987.1 1204 985.8 1204z"
          clip-rule="evenodd" class="colorf47a44 svgShape"></path>
    <path fill="#ffffff" fill-rule="evenodd"
          d="M554.9 575.2c-1.6 22.5-5 25.6-26.4 27.4 21.5 1.7 24.8 4.8 26.4 27.4 1.6-22.5 5-25.6 26.4-27.4C559.8 600.8 556.5 597.7 554.9 575.2L554.9 575.2zM642.2 634.6c-.9 12-2.6 13.7-14.1 14.6 11.5.9 13.2 2.6 14.1 14.6.9-12 2.7-13.7 14.1-14.6C644.8 648.2 643.1 646.6 642.2 634.6L642.2 634.6zM604 542c-.9 12.2-2.7 13.9-14.3 14.8 11.6.9 13.4 2.6 14.3 14.8.9-12.2 2.7-13.9 14.3-14.8C606.6 555.9 604.8 554.2 604 542zM1325.4 1192c-1.6 22.5-5 25.6-26.4 27.4 21.5 1.7 24.8 4.8 26.4 27.4 1.6-22.5 5-25.6 26.4-27.4C1330.3 1217.7 1327 1214.6 1325.4 1192L1325.4 1192zM1412.7 1251.4c-.9 12-2.6 13.7-14.1 14.6 11.5.9 13.2 2.6 14.1 14.6.9-12 2.7-13.7 14.1-14.6C1415.3 1265.1 1413.5 1263.5 1412.7 1251.4L1412.7 1251.4zM1374.4 1158.9c-.9 12.2-2.7 13.9-14.3 14.8 11.6.9 13.4 2.6 14.3 14.8.9-12.2 2.7-13.9 14.3-14.8C1377.1 1172.7 1375.3 1171.1 1374.4 1158.9zM367.3 995.3c-1.6 22.5-5 25.6-26.4 27.4 21.5 1.7 24.8 4.8 26.4 27.4 1.6-22.5 5-25.6 26.4-27.4C372.3 1020.9 368.9 1017.8 367.3 995.3L367.3 995.3zM454.6 1054.7c-.9 12-2.6 13.7-14.1 14.6 11.5.9 13.2 2.6 14.1 14.6.9-12 2.7-13.7 14.1-14.6C457.2 1068.4 455.5 1066.7 454.6 1054.7L454.6 1054.7zM416.4 962.1c-.9 12.2-2.7 13.9-14.3 14.8 11.6.9 13.4 2.6 14.3 14.8.9-12.2 2.7-13.9 14.3-14.8C419 976 417.2 974.3 416.4 962.1zM1395.1 939.8c-1.6 22.5-5 25.6-26.4 27.4 21.5 1.7 24.8 4.8 26.4 27.4 1.6-22.5 5-25.6 26.4-27.4C1400.1 965.4 1396.8 962.3 1395.1 939.8L1395.1 939.8zM1482.4 999.2c-.9 12-2.6 13.7-14.1 14.6 11.5.9 13.2 2.6 14.1 14.6.9-12 2.7-13.7 14.1-14.6C1485.1 1012.9 1483.3 1011.2 1482.4 999.2L1482.4 999.2zM1444.2 906.6c-.9 12.2-2.7 13.9-14.3 14.8 11.6.9 13.4 2.6 14.3 14.8.9-12.2 2.7-13.9 14.3-14.8C1446.9 920.5 1445.1 918.8 1444.2 906.6z"
          clip-rule="evenodd" class="colorfff svgShape"></path>
    <g>
        <rect width="20.7" height="20.7" x="1490.3" y="1565.7" fill="#bb6159" fill-rule="evenodd"
              clip-rule="evenodd" transform="rotate(-45.001 1500.596 1576.07)"
              class="colorbb5d59 svgShape"></rect>
        <rect width="8.9" height="8.9" x="1496.2" y="1571.6" fill="#e68b83" fill-rule="evenodd"
              clip-rule="evenodd" transform="rotate(-45.004 1500.513 1575.947)"
              class="colore69f83 svgShape"></rect>
        <path fill="#8aade8" fill-rule="evenodd"
              d="M1482.8,1388.8c0,0,4.8-60.2-34.7-73.4C1448.1,1315.4,1453.8,1346.9,1482.8,1388.8z"
              clip-rule="evenodd" class="color8ab9e8 svgShape"></path>
        <path fill="#bad2f9" fill-rule="evenodd"
              d="M1511.8,1382.2c0,0,35.8-24.5,74.2,3.8c0,0-4.1-26.4-34.3-30.2S1511.8,1382.2,1511.8,1382.2z"
              clip-rule="evenodd" class="colorbadaf9 svgShape"></path>
        <path fill="#8aade8" fill-rule="evenodd"
              d="M1477.5 1479.2c0 0 1.1-22.2-14.4-33-21.4-14.9-37 1.5-37 1.5S1463.9 1454.7 1477.5 1479.2zM1508.4 1471.8c0 0 12.4-32.4 40.8-21.2C1549.2 1450.6 1535.2 1459.5 1508.4 1471.8zM1507.9 1526.7c0 0 14.5-17.2 30.9-9.5C1538.7 1517.2 1537.8 1525.7 1507.9 1526.7z"
              clip-rule="evenodd" class="color8ab9e8 svgShape"></path>
        <path fill="#c2d7f9" fill-rule="evenodd"
              d="M1472.5,1523.3c0,0-12.8-18.1-27.7-9.3c0,0-1,2.5,9.6,3.8C1465,1519.1,1472.5,1523.3,1472.5,1523.3z"
              clip-rule="evenodd" class="colorc2def9 svgShape"></path>
        <path fill="#8aade8" fill-rule="evenodd"
              d="M1530.9 1411.7c0 0 20.6-19.7 43.5-.6C1574.3 1411.1 1551.8 1413.4 1530.9 1411.7zM1509.9 1417.3c0 0-1-18.6 15.2-22.4C1525.1 1394.9 1522.1 1410.6 1509.9 1417.3z"
              clip-rule="evenodd" class="color8ab9e8 svgShape"></path>
        <path fill="#c2d7f9" fill-rule="evenodd"
              d="M1518.4,1425.8c0,0,14.8-9.4,31.8,3.6C1550.2,1429.4,1537.2,1434.7,1518.4,1425.8z"
              clip-rule="evenodd" class="colorc2def9 svgShape"></path>
        <path fill="#a3c4fb" fill-rule="evenodd"
              d="M1457.8 1400.3c0 0-12.9-26.8-44.3-15.8C1413.5 1384.5 1425.8 1399.3 1457.8 1400.3zM1475.9 1411.6c0 0 7.5-12.7-3.6-26.6C1472.3 1385.1 1465.5 1399.4 1475.9 1411.6z"
              clip-rule="evenodd" class="colora3cffb svgShape"></path>
        <path fill="#bad2f9" fill-rule="evenodd"
              d="M1464.3,1420.6c0,0-22-14.1-43.3,1.4C1421,1422,1440.2,1434.8,1464.3,1420.6z" clip-rule="evenodd"
              class="colorbadaf9 svgShape"></path>
        <path fill="#a3c4fb" fill-rule="evenodd"
              d="M1496,1405.8c0,0-12-21.3,6.2-37.3C1502.1,1368.5,1507.8,1385.7,1496,1405.8z" clip-rule="evenodd"
              class="colora3cffb svgShape"></path>
        <path fill="#bad2f9" fill-rule="evenodd"
              d="M1491.1,1369.8c0,0-2.8-42,31.9-52.3C1523,1317.5,1516.3,1347.6,1491.1,1369.8z"
              clip-rule="evenodd" class="colorbadaf9 svgShape"></path>
        <path fill="#c2d7f9" fill-rule="evenodd"
              d="M1463.9,1396.2c0,0,8.3-20.3-0.8-35.8C1463,1360.4,1450.4,1377.3,1463.9,1396.2z"
              clip-rule="evenodd" class="colorc2def9 svgShape"></path>
        <path fill="#8aade8" fill-rule="evenodd"
              d="M1503.4,1493.3c0,0,8.5-19.9,36.8-11.6C1540.2,1481.7,1533.2,1492.7,1503.4,1493.3z"
              clip-rule="evenodd" class="color8ab9e8 svgShape"></path>
        <path fill="#a3c4fb" fill-rule="evenodd"
              d="M1499.2 1476.6c0 0-8.1-21.8 8.9-33.2C1508.1 1443.4 1512.7 1458.6 1499.2 1476.6zM1465 1498.1c0 0-10.9-21.6-36.5-11.6C1428.5 1486.5 1439.3 1500.7 1465 1498.1z"
              clip-rule="evenodd" class="colora3cffb svgShape"></path>
        <path fill="#c2d7f9" fill-rule="evenodd"
              d="M1474.6,1498.9c0,0-4.9-9.1-16.8-19.6C1457.7,1479.3,1473.8,1473.8,1474.6,1498.9z"
              clip-rule="evenodd" class="colorc2def9 svgShape"></path>
        <path fill="#a3c4fb" fill-rule="evenodd"
              d="M1498 1523.1c0 0 .2-20.4 21.8-22.2C1519.8 1501 1517.5 1514.4 1498 1523.1zM1477.4 1552.8c0 0-5.7-17.3-28-11.7C1449.4 1541.1 1454.5 1553.3 1477.4 1552.8zM1499.9 1555.2c0 0 4.7-16.5 24.4-14.4C1524.3 1540.8 1523 1554.5 1499.9 1555.2z"
              clip-rule="evenodd" class="colora3cffb svgShape"></path>
        <path fill="#6190df" fill-rule="evenodd" d="M1493.4,1452.2L1493.4,1452.2l-0.2-0.1l0,0L1493.4,1452.2L1493.4,1452.2z M1572.4,1371.7
			c-0.1,0-5-3.4-12.2-5.9c-4.3-1.5-8.5-2.4-12.6-2.7c-5.2-0.4-10.1,0.2-14.7,1.6c-13.7,4.4-24.4,17-31.6,37.4
			c-1.4,4-2.7,8.4-3.8,13.1c-0.3-2.1-0.7-5.4-0.9-9.4c-0.3-6.3-0.2-15.7,2-24.6c0.1-0.3-0.1-0.5-0.4-0.6c-0.3-0.1-0.5,0.1-0.6,0.4
			c-2.3,9-2.4,18.5-2.1,24.9c0.3,6.9,1.2,11.8,1.3,11.8l0,0.1c-2.6,11.9-4.4,25.9-5.2,41.9c-0.8,16.1-0.8,34.3,0.2,54.1
			c-0.1,0.6-0.2,1.2-0.3,1.8c-2.1,13.6-2.4,26.7-2.3,35.2c0.2,9.3,0.8,15.4,0.8,15.5c0,0.3,0.2,0.4,0.5,0.4l0.1,0
			c0.3,0,0.5-0.3,0.4-0.6c0-0.1-0.7-6.2-0.8-15.4c-0.1-7.9,0.1-19.6,1.8-32.1c0.1,1.9,0.2,3.7,0.3,5.6c0.5,8.5,1.2,16.7,1.9,24.3
			c-0.6,3-0.9,6.3-0.9,9.7c-0.1,7.6,1.2,13.4,1.2,13.4c0.1,0.2,0.3,0.4,0.5,0.4l0.1,0c0.3-0.1,0.4-0.3,0.4-0.6
			c0-0.1-1.3-5.7-1.2-13.2c0-1.7,0.1-3.5,0.3-5.4c0.3,2.9,0.6,5.7,0.9,8.4c-0.5,1-0.7,1.6-0.7,1.6c-0.1,0.3,0,0.5,0.3,0.6
			c0.1,0,0.1,0,0.2,0c0.2,0,0.4-0.1,0.5-0.3c2.3,21.1,4.6,35.4,4.7,35.6c0,0.2,0.3,0.4,0.5,0.4l0.1,0c0.3,0,0.5-0.3,0.4-0.6
			c0-0.2-2.5-15.2-4.8-37.2c0.7-1.5,2-3.8,3.9-6.1c3-3.8,8.3-8.6,16.4-10c0.3,0,0.5-0.3,0.4-0.6c0-0.3-0.3-0.5-0.6-0.4
			c-3.7,0.7-7.1,2-10.2,4.1c-2.5,1.7-4.7,3.8-6.7,6.2c-1.5,1.8-2.5,3.5-3.3,5c-0.4-3.5-0.7-7.1-1.1-10.9c0.9-5,2.8-10.4,6.1-15
			c5.6-7.7,14.4-12.3,26.2-13.4c0.3,0,0.5-0.3,0.4-0.5c0-0.3-0.3-0.5-0.5-0.4c-12.1,1.2-21.1,5.8-26.9,13.8
			c-2.5,3.5-4.4,7.6-5.6,12.3c-0.1-1.5-0.3-3.1-0.4-4.7c0.1-0.1,0.1-0.2,0.1-0.3c0-0.1,0.2-5.8,2.1-12.5c1.7-6.1,5.2-14.4,12.3-18.6
			c0.2-0.1,0.3-0.5,0.2-0.7c-0.1-0.2-0.5-0.3-0.7-0.2c-3.2,2-6,4.9-8.3,8.7c-1.8,3-3.3,6.6-4.4,10.6c-0.8,2.9-1.3,5.7-1.6,7.8
			c-0.3-3.7-0.6-7.5-0.8-11.3c-0.2-3.4-0.4-6.8-0.6-10.4c0.6-3.5,1.3-7.1,2.2-10.7c0.4-0.6,2.4-3.9,6.2-7.5
			c3.9-3.7,10.4-8.3,19.6-9.9c0.3,0,0.5-0.3,0.4-0.6c0-0.3-0.3-0.5-0.6-0.4c-4.1,0.7-8.1,2.1-11.8,4.1c-3,1.6-5.7,3.7-8.3,6
			c-2.1,2-3.7,3.9-4.7,5.3c5.5-19.9,16.6-39.9,38.7-45.9c0.3-0.1,0.4-0.3,0.4-0.6c-0.1-0.3-0.3-0.4-0.6-0.4
			c-12.6,3.4-22.8,11.5-30.2,24.1c-1.4,2.4-2.8,5-4,7.8c-0.5-4.1-1.5-16.5,2.5-26.4c0.1-0.3,0-0.5-0.3-0.7s-0.5,0-0.7,0.3
			c-2.6,6.4-3.1,13.8-3,18.9c0,5.5,0.7,9.5,0.7,9.5c0,0.1,0,0.1,0.1,0.2c-2.8,6.6-5.1,14.2-6.7,22.5c-0.8-18-0.9-38,0.5-57
			c0.1-0.1,0.2-0.1,0.2-0.3c0,0,0-0.1,0.1-0.2c1.4-3.5,6-13.5,14.7-23.1l0.1,0c0,0,3.6-1.6,9.2-2.5c5.2-0.8,13.3-1.2,22.4,1.6
			c0.3,0.1,0.5-0.1,0.6-0.3c0.1-0.3-0.1-0.5-0.3-0.6c-9.3-2.9-17.6-2.5-22.9-1.6c-3.4,0.5-6,1.3-7.6,1.8
			c9.7-10.1,24.1-19.4,44.2-19.4c0.1,0,0.2,0,0.3,0h0c0.3,0,0.5-0.2,0.5-0.5c0-0.3-0.2-0.5-0.5-0.5c-9.9-0.1-19.2,2.1-27.7,6.4
			c-6.5,3.3-12.5,7.9-17.9,13.6c0.2-1.5,0.5-3.9,1.2-6.8c1.1-4.4,3.4-10.9,7.9-16.7c0.2-0.2,0.1-0.5-0.1-0.7
			c-0.2-0.2-0.5-0.1-0.7,0.1c-4.6,5.9-6.9,12.5-8.1,17.1c-1,4.1-1.3,7.2-1.4,8.2c-7.5,8.3-12,16.9-14.1,21.6
			c1.4-17.4,4.1-33.9,8.8-47.2c7.1-20.1,17.5-32.5,30.9-36.8c10.1-3.3,20.1-1.2,26.7,1.1c7.2,2.5,12,5.8,12,5.8
			c0.2,0.2,0.5,0.1,0.7-0.1C1572.7,1372.2,1572.6,1371.9,1572.4,1371.7z" clip-rule="evenodd"
              class="color619fdf svgShape"></path>
        <path fill="#6190df" fill-rule="evenodd" d="M1488.7,1466.9c0-3.8-0.1-7.6-0.1-11.3c0-0.1,0-0.1,0-0.2c0,0,0-0.1,0-0.3c-0.3-16.7-1.2-32-2.7-45.8
			c0-1.3-0.2-10.1,1.8-22c2-11.9,6.8-29.3,17.8-44.9c0.2-0.2,0.1-0.5-0.1-0.7c-0.2-0.2-0.5-0.1-0.7,0.1c-4.9,7-9,14.9-12.2,23.5
			c-2.5,6.9-4.5,14.2-5.8,21.8c-1,5.9-1.5,11-1.7,14.9c-0.6-4.9-1.3-9.6-2.1-14.1c-2.3-12.9-5.2-24.1-8.7-33.4
			c-3.9-10.2-8.6-18.4-14-24.2c-0.2-0.2-0.5-0.2-0.7,0c-0.2,0.2-0.2,0.5,0,0.7c10.2,11,17.7,30.2,22.4,57.1c1.2,6.6,2.2,13.7,3,21.3
			c0,0.1,0,0.1,0,0.1c0,0,0,0.1,0,0.1c1.3,11.8,2.1,24.6,2.5,38.5c-0.1-0.4-0.2-0.8-0.3-1.2c-1.1-4.7-3.2-12-7.1-19.8
			c-0.2-0.3-0.3-0.7-0.5-1c-0.8-3.4-4-17.2-4.8-28.7c0-0.3-0.3-0.5-0.5-0.5c-0.3,0-0.5,0.3-0.5,0.5c0.6,9.1,2.7,19.5,4,25.3
			c-2.8-4.9-6-9.4-9.7-13.5c-0.4-1.2-5.2-15.7-5.8-29.1c0-0.3-0.2-0.5-0.5-0.5c-0.3,0-0.5,0.2-0.5,0.5c0.5,10.9,3.7,22.6,5.2,27.3
			c-1-1.1-2.1-2.2-3.2-3.2c-8.5-7.9-18.8-13.6-30.6-17.1c-0.3-0.1-0.5,0.1-0.6,0.3c-0.1,0.3,0.1,0.5,0.3,0.6
			c25.2,7.5,38.7,24.2,45.8,37.5c-1.6-1-4.6-2.6-8.9-4.1c-3.9-1.3-8-2.2-12.3-2.6c-5.4-0.6-11-0.4-16.7,0.4c-0.3,0-0.5,0.3-0.4,0.6
			c0,0.3,0.3,0.5,0.6,0.4c12.8-1.8,22.6,0.2,28.5,2.2c6.5,2.2,10,4.8,10,4.9l0.2,0.2c6.7,13.4,8.2,25.4,8.5,27.6
			c0.1,3.8,0.1,7.8,0.1,11.7c0.1,19.4-0.6,38.1-1.5,53.9c-0.3-3.9-0.7-8-1.3-12c-2.3-17.2-6.5-31.2-12.4-41.8
			c-7.4-13.2-17.6-20.9-30.2-22.8c-0.3,0-0.5,0.1-0.6,0.4c0,0.3,0.1,0.5,0.4,0.6c12.3,1.9,22.2,9.4,29.5,22.3
			c5.8,10.4,10,24.3,12.3,41.4c0.5,3.6,0.9,7.2,1.2,10.8c-1.2-2.5-3.5-6.5-7.2-10.9c-0.3-0.4-0.7-0.8-1-1.1c0-0.1,0-0.1,0-0.2
			c0-0.1-0.2-3.5-1.4-7.9c-1.1-4.1-3.3-9.8-7.4-13.9c-0.2-0.2-0.5-0.2-0.7,0c-0.2,0.2-0.2,0.5,0,0.7c4,4,6.1,9.5,7.2,13.5
			c0.8,2.8,1.1,5.3,1.3,6.6c-3-3.1-6.2-5.9-9.8-8.2c-5.5-3.6-11.7-6.1-18.3-7.5c-0.3-0.1-0.5,0.1-0.6,0.4c-0.1,0.3,0.1,0.5,0.4,0.6
			c14.8,3.1,24.3,11.3,29.6,17.7c5.8,6.9,8.1,13.1,8.1,13.2l0.1,0.1c0.1,2.1,0.3,4.1,0.4,6.1c-1,15-2.1,26.7-2.7,33
			c0-0.4,0.1-0.8,0.1-1.3c0-0.1,0-0.1,0-0.2c0.1-1.2,0.1-2.4,0.1-3.6c0.1-5.5-0.4-10.6-1.4-15.2c-1.2-5.8-3.2-10.8-6-14.8
			c-4.9-7.2-12.3-11.6-21.9-13c-0.3,0-0.5,0.1-0.6,0.4c0,0.3,0.1,0.5,0.4,0.6c9.3,1.4,16.4,5.6,21.2,12.6c6.1,9,7.3,21,7.2,29.5
			c0,0.6,0,1.1,0,1.7c-0.7-1.4-2-3.3-3.8-5.4c-1.9-2.1-4.1-3.9-6.5-5.3c-3-1.7-6.3-2.7-9.8-3c-0.3,0-0.5,0.2-0.5,0.5
			c0,0.3,0.2,0.5,0.5,0.5c7.6,0.7,12.6,4.7,15.6,7.9c2.8,3.2,4.2,6.2,4.5,6.8c-0.4,7.4-1.6,12.7-1.6,12.7c-0.1,0.3,0.1,0.5,0.4,0.6
			l0.1,0c0.2,0,0.4-0.2,0.5-0.4c0,0,0.6-2.5,1-6.5c0.1,0.2,0.2,0.3,0.4,0.3h0.1c0.2,0,0.5-0.2,0.5-0.4c0-0.2,1.3-11.1,2.5-28.2
			c0.1,3.8,0,7.2,0,10.2c-0.2,10.7-0.9,17.8-0.9,17.9c0,0.3,0.2,0.5,0.4,0.5h0.1c0.3,0,0.5-0.2,0.5-0.4c0-0.1,0.7-7.3,0.9-18
			c0.1-5.4,0.1-12.4-0.3-20.1C1487.8,1511.4,1488.8,1489.7,1488.7,1466.9z" clip-rule="evenodd"
              class="color619fdf svgShape"></path>
        <path fill="#a3c4fb" fill-rule="evenodd" d="M1523.1,1571.3c0,2.1,0,4.2-0.1,6.3c-0.1,2-0.1,4-0.2,6c-0.1,2.4-0.3,4.8-0.5,7.1c-0.6,7-1.4,13.6-2.5,19.9
			c-1.9,10.5-4.5,19.9-7.6,27.7c-1,2.5-2.1,4.9-3.3,7.1c-0.1,0.2-0.3,0.5-0.4,0.7c-1,1.9-2,3.6-3.1,5.2h-31.9
			c-1.2-1.8-2.4-3.8-3.5-5.9c-1.1-2.2-2.2-4.6-3.3-7.1c-5-12.5-8.6-29-10.1-47.6c-0.2-2.3-0.3-4.7-0.5-7.1c-0.1-2-0.2-4-0.2-6
			c-0.1-2.1-0.1-4.2-0.1-6.3c0-0.3,0-0.5,0-0.8c0-3.1,0.1-6.1,0.2-9.1h66.8c0.1,3,0.2,6,0.2,9.1
			C1523.1,1570.7,1523.1,1571,1523.1,1571.3z" clip-rule="evenodd" class="colora3cffb svgShape"></path>
        <path fill="#8aade8" fill-rule="evenodd"
              d="M1523.1 1571.3c0 2.1 0 4.2-.1 6.3h-67c-.1-2.1-.1-4.2-.1-6.3 0-.3 0-.5 0-.8h67.2C1523.1 1570.7 1523.1 1571 1523.1 1571.3zM1522.7 1583.6c-.1 2.4-.3 4.8-.5 7.1h-65.6c-.2-2.3-.3-4.7-.5-7.1H1522.7z"
              clip-rule="evenodd" class="color8ab9e8 svgShape"></path>
        <path fill="#dee8f9" fill-rule="evenodd"
              d="M1512.2,1638.3c-1,2.5-2.1,4.9-3.3,7.1H1470c-1.1-2.2-2.2-4.6-3.3-7.1H1512.2z"
              clip-rule="evenodd" class="colordeecf9 svgShape"></path>
        <path fill="#c2d7f9" fill-rule="evenodd"
              d="M1513.3 1611.1c-15.4 0-25.2-9.5-31.3-20.4h40.3c.1-1.5.2-3.1.3-4.6-.1 1.5-.2 3.1-.3 4.6-.3 3.9-.7 7.8-1.2 11.5-.4 2.9-.8 5.7-1.3 8.4l0 0C1517.5 1611 1515.4 1611.1 1513.3 1611.1zM1522.7 1583.6h-44.2c-.8-2-1.6-4.1-2.2-6h46.6c0-.5 0-1.1 0-1.6 0 .5 0 1.1 0 1.6C1522.9 1579.6 1522.8 1581.6 1522.7 1583.6L1522.7 1583.6 1522.7 1583.6zM1523.1 1571.3c0-.2 0-.5 0-.7C1523.1 1570.8 1523.1 1571 1523.1 1571.3L1523.1 1571.3 1523.1 1571.3zM1523.1 1570.5h-48.7c-.9-3.7-1.5-6.9-1.8-9.1h50.3C1523 1564.3 1523 1567.4 1523.1 1570.5L1523.1 1570.5z"
              clip-rule="evenodd" class="colorc2def9 svgShape"></path>
        <path fill="#dee8f9" fill-rule="evenodd"
              d="M1523 1577.6h-46.6c-.8-2.5-1.5-4.9-2-7.1h48.7l0 0c0 0 0 .1 0 .1 0 .2 0 .5 0 .7l0 0c0 1.6 0 3.2 0 4.7l0 0C1523 1576.5 1523 1577 1523 1577.6zM1522.3 1590.7H1482c-1.3-2.3-2.4-4.7-3.4-7.1h44.2l0 0c0 .8-.1 1.7-.1 2.5l0 0C1522.5 1587.7 1522.4 1589.2 1522.3 1590.7z"
              clip-rule="evenodd" class="colordeecf9 svgShape"></path>
        <path fill="#8aade8" fill-rule="evenodd" d="M1505.4,1651.4h-31.9c-1.2-1.8-2.4-3.8-3.5-5.9h36.6c0.6,0.3,1.3,0.5,1.9,0.7
			C1507.5,1648.1,1506.5,1649.8,1505.4,1651.4L1505.4,1651.4z M1467.5,1640.1c-0.2-0.6-0.5-1.2-0.7-1.8c-5-12.5-8.6-29-10.1-47.6
			c-0.1-1.4-0.2-2.8-0.3-4.3c0.1,1.4,0.2,2.9,0.3,4.3h11.5c4.1,16.8,11.9,36,26.4,47.6h-27.8
			C1467,1638.9,1467.2,1639.5,1467.5,1640.1L1467.5,1640.1z M1466.5,1583.6h-10.4l0,0c-0.1-2-0.2-4-0.2-6h9.5
			C1465.8,1579.5,1466.1,1581.5,1466.5,1583.6L1466.5,1583.6z M1455.9,1571.3L1455.9,1571.3c0-0.3,0-0.5,0-0.8
			C1455.9,1570.7,1455.9,1571,1455.9,1571.3L1455.9,1571.3z M1464.5,1570.5h-8.6c0-3.1,0.1-6.1,0.2-9.1h7.5
			C1463.8,1563.7,1464,1566.8,1464.5,1570.5z" clip-rule="evenodd" class="color8ab9e8 svgShape"></path>
        <path fill="#6190df" fill-rule="evenodd"
              d="M1465.5 1577.6h-9.5l0 0c-.1-2.1-.1-4.2-.1-6.3l0 0c0-.3 0-.5 0-.8l0 0 0 0h8.6C1464.7 1572.6 1465.1 1575 1465.5 1577.6zM1468.1 1590.7h-11.5c-.1-1.4-.2-2.8-.3-4.3l0 0c-.1-.9-.1-1.9-.2-2.8l0 0h10.4C1467 1585.9 1467.5 1588.3 1468.1 1590.7zM1506.6 1645.5H1470l0 0c-.9-1.7-1.7-3.5-2.5-5.4l0 0c-.2-.6-.5-1.2-.7-1.8h27.8C1498.1 1641.2 1502.1 1643.6 1506.6 1645.5z"
              clip-rule="evenodd" class="color619fdf svgShape"></path>
    </g>
</svg>
