<svg xmlns="http://www.w3.org/2000/svg" fill="none" viewBox="0 0 1500 1500">
    <path fill="#ffffff" stroke="#032A7E" stroke-linecap="round" stroke-linejoin="round" stroke-width="2.232"
          d="M288.246 1233.11V1279.93L321.951 1278.09L323.535 1238.18L288.246 1233.11Z"
          class="colorfff svgShape colorStroke032A7E svgStroke"></path>
    <path fill="#ffffff" stroke="#032A7E" stroke-linecap="round" stroke-linejoin="round" stroke-width="2.232"
          d="M377.963 1301.97H275.771C275.771 1301.97 275.137 1292.72 274.884 1288.48 274.503 1283.35 274.63 1276.12 276.911 1269.85 277.925 1266.81 279.508 1264.02 281.789 1261.68 290.406 1252.94 291.673 1273.46 306.941 1272.77 322.147 1272.13 309.032 1258.7 325.631 1257.81 333.931 1258 330.256 1276 355.598 1278.34 381.004 1280.62 377.963 1301.97 377.963 1301.97zM142.531 1233.11V1279.93L176.236 1278.09 177.82 1238.18 142.531 1233.11z"
          class="colorfff svgShape colorStroke032A7E svgStroke"></path>
    <path fill="#ffffff" stroke="#032A7E" stroke-linecap="round" stroke-linejoin="round" stroke-width="2.232"
          d="M232.244 1301.97H130.052C130.052 1301.97 129.418 1292.72 129.165 1288.48C128.785 1283.35 128.911 1276.12 131.192 1269.85C132.206 1266.81 133.79 1264.02 136.071 1261.68C144.687 1252.94 145.954 1273.46 161.223 1272.77C176.428 1272.13 163.313 1258.7 179.912 1257.81C188.212 1258 184.537 1276 209.879 1278.34C235.285 1280.62 232.244 1301.97 232.244 1301.97Z"
          class="colorfff svgShape colorStroke032A7E svgStroke"></path>
    <path fill="#e5efff"
          d="M330.756 1015.29L324.231 736.021L235.913 766.052L147.596 736.021L141.07 1015.29L134.672 1242.1C134.545 1246.16 137.776 1249.45 141.831 1249.45H183.392C187.003 1249.45 190.044 1246.73 190.488 1243.12L216.78 1025.49C217.16 1023.65 217.35 1021.69 217.477 1019.79L218.047 1015.29L236.04 871.411L254.033 1015.29L254.603 1019.79C254.73 1021.75 254.92 1023.65 255.3 1025.55L281.592 1243.18C282.036 1246.79 285.077 1249.52 288.688 1249.52H330.249C334.304 1249.52 337.535 1246.16 337.408 1242.17L331.01 1015.35L330.756 1015.29Z"
          class="colorE5EFFF svgShape"></path>
    <path stroke="#032A7E" stroke-linecap="round" stroke-linejoin="round" stroke-width="2.232"
          d="M330.756 1015.29L324.231 736.021L235.913 766.052L147.596 736.021L141.07 1015.29L134.672 1242.1C134.545 1246.16 137.776 1249.45 141.831 1249.45H183.392C187.003 1249.45 190.044 1246.73 190.488 1243.12L216.78 1025.49C217.16 1023.65 217.35 1021.69 217.477 1019.79L218.047 1015.29L236.04 871.411L254.033 1015.29L254.603 1019.79C254.73 1021.75 254.92 1023.65 255.3 1025.55L281.592 1243.18C282.036 1246.79 285.077 1249.52 288.688 1249.52H330.249C334.304 1249.52 337.535 1246.16 337.408 1242.17L331.01 1015.35L330.756 1015.29Z"
          class="colorStroke032A7E svgStroke"></path>
    <path fill="#ffffff" stroke="#032A7E" stroke-linecap="round" stroke-linejoin="round" stroke-width="2.232"
          d="M436.939 663.708C436.939 663.708 437.175 664.16 437.457 664.19C467.886 669.301 486.731 656.314 491.134 654.018C495.538 651.722 492.277 648.355 490.862 648.803C496.409 647.54 496.226 641.48 491.5 642.517C491.5 642.517 493.276 641.623 494 639.905C494.925 637.638 494.389 634.362 488.6 634.944C488.6 634.944 490.25 633.894 490.609 632.393C491.169 630.344 490.134 626.673 487.372 627.462C482.372 628.926 466.156 634.869 457.082 637.41C456.435 637.598 456.068 636.761 456.536 636.384C463.973 629.936 467.978 622.269 463.762 621.451C459.158 620.535 446.461 635.2 441.112 636.741C437.022 637.959 434.119 638.734 433.035 639.017C432.738 639.128 432.567 639.395 432.625 639.658L436.866 663.586L436.939 663.708Z"
          class="colorfff svgShape colorStroke032A7E svgStroke"></path>
    <path fill="#ffffff" d="M472.704 640.266C482.286 638.576 488.651 634.978 488.651 634.978Z"
          class="colorfff svgShape"></path>
    <path stroke="#032A7E" stroke-linecap="round" stroke-linejoin="round" stroke-width="2.232"
          d="M472.704 640.266C482.286 638.576 488.651 634.978 488.651 634.978"
          class="colorStroke032A7E svgStroke"></path>
    <path fill="#ffffff" d="M476.009 647.569C485.588 646.706 491.956 642.281 491.956 642.281Z"
          class="colorfff svgShape"></path>
    <path stroke="#032A7E" stroke-linecap="round" stroke-linejoin="round" stroke-width="2.232"
          d="M476.009 647.569C485.588 646.706 491.956 642.281 491.956 642.281"
          class="colorStroke032A7E svgStroke"></path>
    <path fill="#ffffff" d="M476.38 653.449C485.959 652.585 492.327 648.161 492.327 648.161Z"
          class="colorfff svgShape"></path>
    <path stroke="#032A7E" stroke-linecap="round" stroke-linejoin="round" stroke-width="2.232"
          d="M476.38 653.449C485.959 652.585 492.327 648.161 492.327 648.161"
          class="colorStroke032A7E svgStroke"></path>
    <path fill="#ffffff"
          d="M445.249 664.819C443.497 662.269 441.316 658.39 439.6 653.079C437.383 646.319 438.011 640.402 438.773 636.979C439.113 635.391 437.907 633.866 436.255 633.862L331.644 631.589L317.942 542.178C317.138 529.16 313.01 516.608 306.072 505.696C302.725 500.431 296.78 497.588 290.552 497.222V497.222L268.108 543.527L289.841 656.585C290.016 658.427 290.332 660.284 290.876 662.136C293.817 670.939 301.342 676.81 309.978 678.126L309.948 678.407L311.406 678.363C313.097 678.542 314.783 678.493 316.518 678.25L364.393 677.377C370.156 677.305 375.896 676.917 381.612 676.214L443.376 669.037C445.413 668.911 446.512 666.606 445.355 664.888L445.249 664.819Z"
          class="colorfff svgShape"></path>
    <path fill="#ffffff" stroke="#032A7E" stroke-linecap="round" stroke-width="2.232"
          d="M289.257 671.562L263.661 611.52L290.556 497.221C306.077 501.099 318.053 513.451 321.45 529.085L342.103 624.121L430.548 628.204C434.441 628.384 437.767 631.067 438.766 634.833L447.545 667.906C448.983 673.324 445.131 678.711 439.539 679.103L315.77 687.778C304.379 688.577 293.735 682.066 289.257 671.562Z"
          class="colorfff svgShape colorStroke032A7E svgStroke"></path>
    <path fill="#ffffff"
          d="M289.958 496.409C242.062 481.9 180.48 490.01 162.868 503.378C145.255 516.746 143.164 610.385 144.938 651.249C146.712 692.113 148.106 762.121 148.106 762.121C148.106 762.121 154.631 787.716 245.546 787.97C317.138 788.983 326.514 769.533 326.514 769.533L314.477 527.389C313.78 513.958 305.859 505.215 293.315 500.4L289.895 496.345L289.958 496.409Z"
          class="colorfff svgShape"></path>
    <path fill="#032a7e" stroke="#032A7E" stroke-linecap="round" stroke-linejoin="round" stroke-width="2.232"
          d="M227.2 684.117C189.187 696.788 148.006 674.614 148.006 674.614L144.43 646.118L148.006 636.6L182.443 665.124L227.2 684.117Z"
          class="color032A7E svgShape colorStroke032A7E svgStroke"></path>
    <path stroke="#032A7E" stroke-linecap="round" stroke-linejoin="round" stroke-width="2.232"
          d="M292.809 497.486L289.958 496.409C242.062 481.9 180.48 490.01 162.868 503.378C145.255 516.746 143.164 610.385 144.938 651.249C146.712 692.113 148.106 762.121 148.106 762.121C148.106 762.121 154.631 787.716 245.546 787.97C317.138 788.983 326.514 769.533 326.514 769.533L315.997 558.18"
          class="colorStroke032A7E svgStroke"></path>
    <path fill="#c3d6ff"
          d="M458.789 472.332C482.048 451.9 518.987 462.91 527.264 492.742L597.646 746.41C606.402 777.965 576.845 806.592 545.237 797.171L277.078 717.242C245.469 707.821 236.409 667.683 261.012 646.071L458.789 472.332Z"
          class="colorC3D6FF svgShape"></path>
    <path fill="#ffffff"
          d="M485.094 571.246L451.018 645.194C448.835 649.932 443.437 652.269 438.488 650.619V650.619C433.55 648.973 430.634 643.881 431.714 638.789L448.618 559.087 458.016 530.892C461.374 520.819 472.261 515.376 482.334 518.733V518.733C492.406 522.091 497.85 532.978 494.493 543.051L485.094 571.246zM433.442 665.215C443.032 668.411 448.215 678.777 445.018 688.367L444.634 689.519C441.438 699.109 431.072 704.292 421.482 701.095V701.095C411.892 697.898 406.709 687.533 409.906 677.943L410.29 676.791C413.487 667.201 423.852 662.018 433.442 665.215V665.215zM218.174 471.321V499.261L220.328 502.809C224.383 509.461 230.085 514.847 236.927 518.585L242.566 521.626 245.607 519.155C252.132 513.833 257.581 507.244 261.509 499.768L261.762 499.325 260.305 472.082 236.927 459.207 220.865 462.375 218.174 471.385V471.321z"
          class="colorfff svgShape"></path>
    <path stroke="#032A7E" stroke-linecap="round" stroke-linejoin="round" stroke-width="2.232"
          d="M218.174 490.885V471.322V471.385L217.697 456.04L239.872 452.872L260.305 472.082L262.046 494.053"
          class="colorStroke032A7E svgStroke"></path>
    <path fill="#ffffff"
          d="M281.152 388.266C287.107 462.328 275.387 466.763 261.005 470.374C246.623 473.985 218.24 468.853 218.24 468.853V377.495L281.215 388.266H281.152Z"
          class="colorfff svgShape"></path>
    <path fill="#ffffff"
          d="M218.174 468.853V377.495L281.149 388.266C287.104 462.328 275.384 466.763 261.002 470.374C257.327 471.324 252.702 471.641 247.887 471.704"
          class="colorfff svgShape"></path>
    <path stroke="#032A7E" stroke-linecap="round" stroke-linejoin="round" stroke-width="2.232"
          d="M218.174 468.853V377.495L281.149 388.266C287.104 462.328 275.384 466.763 261.002 470.374C257.327 471.324 252.702 471.641 247.887 471.704"
          class="colorStroke032A7E svgStroke"></path>
    <path fill="#032a7e" stroke="#032A7E" stroke-linejoin="round" stroke-width="2.232"
          d="M186.018 412.192C186.017 406.393 189.058 377.347 205.784 386.516C211.867 365.976 227.073 360.842 237.717 368.178C237.717 362.676 242.887 349.839 263.567 342.503C304.622 335.167 312.225 410.358 280.293 415.86C254.747 420.261 246.333 410.358 245.32 404.856C240.758 414.025 226.465 416.959 217.949 406.689C216.733 428.696 213.767 440.312 208.192 443.368C195.521 443.368 186.019 421.36 186.018 412.192Z"
          class="color032A7E svgShape colorStroke032A7E svgStroke"></path>
    <path fill="#ffffff"
          d="M234.586 436.603C228.187 441.037 225.589 421.841 216.466 419.243C207.343 416.646 198.98 438.187 219.064 453.075C230.278 461.375 233.826 455.292 234.713 448.26C235.473 442.685 234.586 436.603 234.586 436.603Z"
          class="colorfff svgShape"></path>
    <path stroke="#032A7E" stroke-linecap="round" stroke-linejoin="round" stroke-width="2.232"
          d="M219.064 453.075C198.98 438.187 207.343 416.646 216.466 419.243 220.719 420.454 223.553 425.271 226.016 429.62M243.135 812.871L235.85 871.411"
          class="colorStroke032A7E svgStroke"></path>
    <path stroke="#032A7E" stroke-width="2.232" d="M318.656 671.46C308.519 681.597 310.209 692.578 312.321 696.802"
          class="colorStroke032A7E svgStroke"></path>
    <path stroke="#032A7E" stroke-linecap="round" stroke-width="2.232"
          d="M220.454 430.71C217.288 424.376 210.949 430.711 214.117 437.046"
          class="colorStroke032A7E svgStroke"></path>
    <path fill="#032a7e" stroke="#032A7E" stroke-linecap="round" stroke-linejoin="round" stroke-width="2.232"
          d="M242.63 902.707V823.512L236.295 871.029L242.63 902.707Z"
          class="color032A7E svgShape colorStroke032A7E svgStroke"></path>
    <path stroke="#032A7E" stroke-linecap="round" stroke-width="2.232"
          d="M217.697 468.71C224.033 484.549 255.71 481.382 258.878 478.214" class="colorStroke032A7E svgStroke"></path>
    <path fill="#ffffff" stroke="#032A7E" stroke-width="2.232"
          d="M319.214 662.817L353.845 664.596C353.845 664.596 360.187 664.986 365.676 669.069C370.104 672.37 373.497 682.493 374.63 686.232C374.824 686.873 374.264 687.441 373.633 687.218C371.768 686.562 368.474 685.048 366.424 682.075C363.433 677.761 362.398 675.397 362.398 675.397L352.689 673.105C351.866 672.911 351.033 673.383 350.776 674.188V674.188C350.531 674.958 350.89 675.79 351.617 676.142C356.222 678.376 365.653 683.107 370.246 686.509C374.973 690.001 376.971 696.57 377.659 699.53C377.815 700.2 377.171 700.708 376.554 700.405C373.939 699.121 368.379 695.916 365.909 690.888L348.419 684.613C347.946 684.443 347.427 684.701 347.277 685.18V685.18C347.13 685.647 347.389 686.143 347.854 686.295C351.773 687.575 357.982 690.03 363.406 694.134C369.689 698.878 372.277 703.564 373.232 705.81C373.493 706.425 372.963 706.985 372.325 706.784C369.429 705.87 362.696 703.286 358.391 697.99L353.869 696.522C356.852 699.595 358.88 705.029 359.654 707.358C359.839 707.917 359.424 708.414 358.861 708.239C357.857 707.927 356.198 707.193 353.915 705.467C349.932 702.446 349.308 699.913 349.308 699.913L336.094 697.824C329.122 697.191 318.719 695.728 313.353 692.418L299.826 688.536L301.788 658.704L319.196 662.813L319.214 662.817Z"
          class="colorfff svgShape colorStroke032A7E svgStroke"></path>
    <path fill="#ffffff"
          d="M201.859 604.924L182.852 494.052L170.124 497.689C151.319 503.062 138.201 520.048 137.757 539.6L136.033 615.446C135.613 633.916 146.614 650.737 163.703 657.756L298.405 713.08C305.959 716.182 314.506 711.861 316.487 703.94L325.734 666.95C327.358 660.452 323.933 653.754 317.715 651.267L201.859 604.924Z"
          class="colorfff svgShape"></path>
    <path stroke="#032A7E" stroke-linecap="round" stroke-width="2.232"
          d="M182.852 494.052L170.124 497.689C151.319 503.062 138.201 520.048 137.757 539.6L136.033 615.446C135.613 633.916 146.614 650.737 163.703 657.756L298.405 713.08C305.959 716.182 314.506 711.861 316.487 703.94L325.734 666.95C327.358 660.452 323.933 653.754 317.715 651.267L265.214 630.266 189.188 598.589M205.027 604.924L201.859 554.24"
          class="colorStroke032A7E svgStroke"></path>
    <path fill="#c3d6ff"
          d="M690.971 1172V1223.94H652.453V1296.61H586.926V1223.94H452.113V1165.94L577.296 960.971H652.453V1172H690.971zM501.67 1172H586.926V1026.19L501.67 1172zM911.791 1305C868.419 1305 837.965 1289.94 820.429 1259.81 803.049 1229.69 794.359 1186.75 794.359 1131.01 794.359 1075.26 803.049 1032.25 820.429 1001.97 837.965 971.686 868.419 956.546 911.791 956.546 955.163 956.546 985.617 971.686 1003.15 1001.97 1020.53 1032.25 1029.22 1075.26 1029.22 1131.01 1029.22 1186.75 1020.46 1229.69 1002.92 1259.81 985.539 1289.94 955.163 1305 911.791 1305zM951.014 1219.98C957.12 1199.49 960.173 1169.83 960.173 1131.01 960.173 1090.32 957.042 1060.2 950.779 1040.63 944.672 1021.07 931.676 1011.28 911.791 1011.28 891.906 1011.28 878.754 1021.07 872.334 1040.63 865.914 1060.2 862.704 1090.32 862.704 1131.01 862.704 1169.83 865.914 1199.56 872.334 1220.22 878.754 1240.71 891.906 1250.96 911.791 1250.96 931.676 1250.96 944.751 1240.64 951.014 1219.98zM1370.76 1172V1223.94H1332.25V1296.61H1266.72V1223.94H1131.91V1165.94L1257.09 960.971H1332.25V1172H1370.76zM1181.46 1172H1266.72V1026.19L1181.46 1172z"
          class="colorC3D6FF svgShape"></path>
</svg>
